<?xml version="1.0" encoding="UTF-8" standalone="no"?>
<svg
   xmlns:osb="http://www.openswatchbook.org/uri/2009/osb"
   xmlns:dc="http://purl.org/dc/elements/1.1/"
   xmlns:cc="http://creativecommons.org/ns#"
   xmlns:rdf="http://www.w3.org/1999/02/22-rdf-syntax-ns#"
   xmlns:svg="http://www.w3.org/2000/svg"
   xmlns="http://www.w3.org/2000/svg"
   xmlns:xlink="http://www.w3.org/1999/xlink"
   xmlns:sodipodi="http://sodipodi.sourceforge.net/DTD/sodipodi-0.dtd"
   xmlns:inkscape="http://www.inkscape.org/namespaces/inkscape"
   version="1.1"
   id="Layer_1"
   x="0px"
   y="0px"
   width="264px"
   height="300px"
   viewBox="0 0 264 300"
   enable-background="new 0 0 264 300"
   xml:space="preserve"
   sodipodi:docname="header.svg"
   inkscape:export-filename="C:\Betina\VSC\bookOnTheShelfFront\booksontheshelf\src\Header\header.png"
   inkscape:export-xdpi="96"
   inkscape:export-ydpi="96"
   inkscape:version="1.0.1 (3bc2e813f5, 2020-09-07)"><metadata
   id="metadata103"><rdf:RDF><cc:Work
       rdf:about=""><dc:format>image/svg+xml</dc:format><dc:type
         rdf:resource="http://purl.org/dc/dcmitype/StillImage" /></cc:Work></rdf:RDF></metadata><defs
   id="defs101"><linearGradient
     inkscape:collect="always"
     id="linearGradient3266"><stop
       style="stop-color:#290f37;stop-opacity:1;"
       offset="0"
       id="stop3262" /><stop
       style="stop-color:#290f37;stop-opacity:0;"
       offset="1"
       id="stop3264" /></linearGradient><linearGradient
     inkscape:collect="always"
     id="linearGradient3254"><stop
       style="stop-color:#fa539a;stop-opacity:1;"
       offset="0"
       id="stop3250" /><stop
       style="stop-color:#fa539a;stop-opacity:0;"
       offset="1"
       id="stop3252" /></linearGradient><linearGradient
     inkscape:collect="always"
     id="linearGradient3222"><stop
       style="stop-color:#fa996d;stop-opacity:1;"
       offset="0"
       id="stop3218" /><stop
       style="stop-color:#fa996d;stop-opacity:0;"
       offset="1"
       id="stop3220" /></linearGradient><linearGradient
     id="linearGradient2920"
     osb:paint="solid"><stop
       style="stop-color:#000000;stop-opacity:1;"
       offset="0"
       id="stop2918" /></linearGradient><filter
     inkscape:collect="always"
     style="color-interpolation-filters:sRGB"
     id="filter2942"
     x="-2.5062158e-05"
     width="1.0000501"
     y="-3.736101e-05"
     height="1.0000747"><feGaussianBlur
       inkscape:collect="always"
       stdDeviation="0.00074525271"
       id="feGaussianBlur2944" /></filter><filter
     inkscape:collect="always"
     style="color-interpolation-filters:sRGB"
     id="filter3206"
     x="-0.0022059443"
     width="1.0044119"
     y="-0.017536451"
     height="1.0350729"><feGaussianBlur
       inkscape:collect="always"
       stdDeviation="0.097926463"
       id="feGaussianBlur3208" /></filter><linearGradient
     inkscape:collect="always"
     xlink:href="#linearGradient3222"
     id="linearGradient3224"
     x1="90.918976"
     y1="207.079"
     x2="197.93003"
     y2="207.079"
     gradientUnits="userSpaceOnUse" /><linearGradient
     inkscape:collect="always"
     xlink:href="#linearGradient3222"
     id="linearGradient3232"
     x1="50.874001"
     y1="207.07899"
     x2="83.436996"
     y2="207.07899"
     gradientUnits="userSpaceOnUse" /><linearGradient
     inkscape:collect="always"
     xlink:href="#linearGradient3254"
     id="linearGradient3256"
     x1="226.585"
     y1="238.25266"
     x2="263.186"
     y2="238.25266"
     gradientUnits="userSpaceOnUse" /><filter
     inkscape:collect="always"
     style="color-interpolation-filters:sRGB"
     id="filter3258"
     x="-0.0013979992"
     width="1.002796"
     y="-0.0048048284"
     height="1.0096097"><feGaussianBlur
       inkscape:collect="always"
       stdDeviation="0.021320071"
       id="feGaussianBlur3260" /></filter><linearGradient
     inkscape:collect="always"
     xlink:href="#linearGradient3266"
     id="linearGradient3268"
     x1="130.115"
     y1="267.462"
     x2="243.706"
     y2="267.462"
     gradientUnits="userSpaceOnUse" /><linearGradient
     inkscape:collect="always"
     xlink:href="#linearGradient3266"
     id="linearGradient3276"
     x1="134.59444"
     y1="261.47446"
     x2="6.2879634"
     y2="278.23962"
     gradientUnits="userSpaceOnUse" /></defs><sodipodi:namedview
   pagecolor="#ffffff"
   bordercolor="#666666"
   borderopacity="1"
   objecttolerance="10"
   gridtolerance="10"
   guidetolerance="10"
   inkscape:pageopacity="0"
   inkscape:pageshadow="2"
   inkscape:window-width="1366"
   inkscape:window-height="705"
   id="namedview99"
   showgrid="false"
   inkscape:zoom="1.6701291"
   inkscape:cx="108.96765"
   inkscape:cy="155.00303"
   inkscape:window-x="-8"
   inkscape:window-y="-8"
   inkscape:window-maximized="1"
   inkscape:current-layer="Layer_1" />
<rect
   x="124.898"
   y="55.816"
   fill="#1D72D8"
   width="37.326"
   height="60.314"
   id="rect2"
   style="fill:#5cabd8;fill-opacity:1" />
<path
   fill="none"
   d="M92.293,162.235c-0.663,3.145-1.367,6.283-2.06,9.422h1.422C91.827,168.52,92.027,165.38,92.293,162.235z"
   id="path4" />
<path
   fill="#E94A47"
   d="M209.442,185.059c2.683,5.265,5.47,10.446,8.293,15.318h24.405v13.402h-4.679  c6.978,2.074,19.055,11.407,24.3,11.01c-9.337-22.832-12.929-31.668-19.621-46.915v7.185  C242.14,185.059,209.442,185.059,209.442,185.059z"
   id="path6" />
<path
   fill="#E94A47"
   d="M228.957,127.618H65.286c-0.685,5.091-1.356,10.201-2.031,15.318h166.534  C229.341,138.122,229.145,132.82,228.957,127.618z"
   id="path8"
   style="fill:#c837ab" />
<path
   fill="#E94A47"
   d="M91.171,185.059c-0.091,5.111-0.087,10.216-0.017,15.318h106.257c-0.13-5.102-0.295-10.208-0.511-15.318  C196.901,185.059,91.171,185.059,91.171,185.059z"
   id="path10"
   style="fill-opacity:1;fill:#f98391" />
<path
   fill="#E94A47"
   d="M202.89,171.657h36.508c-1.951-4.403-4.177-9.393-6.828-15.318h-36.574  C198.068,161.142,200.389,166.327,202.89,171.657z"
   id="path12"
   style="fill:#e23ce7;fill-opacity:1" />
<path
   fill="#E94A47"
   d="M92.293,162.235c-0.266,3.143-0.466,6.283-0.638,9.422h104.55c-0.318-5.098-0.714-10.203-1.184-15.318  H61.448c-0.708,5.113-1.444,10.222-2.233,15.318h31.017C90.926,168.518,91.629,165.38,92.293,162.235z"
   id="path14"
   style="fill:#e23ce7;fill-opacity:1" />
<path
   fill="#E94A47"
   d="M87.172,185.059H57c-0.912,5.135-1.901,10.244-2.987,15.318h29.426  C84.723,195.281,85.968,190.176,87.172,185.059z"
   id="path16"
   style="fill:#f98391;fill-opacity:1" />
<path
   fill="#E94A47"
   d="M226.828,105.121c-0.702-2.458-1.175-4.483-1.608-6.222h-65.813c-9.615,9.137-21.791,11.947-32.425,0H96.371  c-8.493,1.251-16.861,3.31-21.974,6.704c-2.096,1.392-4.091,3.03-5.425,5.163c-0.674,1.076-1.151,2.241-1.519,3.451h160.811  C227.961,110.689,227.522,107.555,226.828,105.121z"
   id="path18"
   style="fill:#842c89;fill-opacity:1" />
<path
   fill="#428DFC"
   d="M216.778,86.931c-3.54-2.292-22.266-0.206-26.32,0.957c-10.36,2.974-24.885,3.829-24.885,3.829  c-1.888,2.661-3.961,5.084-6.169,7.18h65.813C223.882,93.524,222.923,90.908,216.778,86.931z"
   id="path20"
   style="fill:#972167;fill-opacity:1" />
<path
   fill="#428DFC"
   d="M125.377,96.983c0,0-14.68-0.195-29.007,1.914h30.61C126.442,98.293,125.907,97.663,125.377,96.983z"
   id="path22"
   style="fill:#972167;fill-opacity:1" />
<path
   fill="#428DFC"
   d="M228.264,114.215H67.452c-0.559,1.844-0.848,3.794-1.115,5.708c-0.357,2.559-0.704,5.125-1.051,7.696  h163.671C228.784,122.911,228.614,118.296,228.264,114.215z"
   id="path24"
   style="fill:#bb2c89;fill-opacity:1" />
<path
   fill="#428DFC"
   d="M194.765,153.466c0.094,0.957,0.169,1.914,0.257,2.872h0.974  C195.577,155.37,195.162,154.403,194.765,153.466z"
   id="path26" />
<path
   fill="#428DFC"
   d="M194.765,153.466c0.397,0.936,0.812,1.901,1.23,2.872h36.574c-1.475-3.293-2.284-8.042-2.782-13.402H63.255  c-0.59,4.464-1.189,8.935-1.806,13.402h133.574C194.934,155.381,194.859,154.426,194.765,153.466z"
   id="path28"
   style="fill:#cc0ced;fill-opacity:1" />
<path
   fill="#428DFC"
   d="M90.233,171.657H59.215c-0.693,4.482-1.425,8.95-2.215,13.402h30.173  C88.223,180.599,89.244,176.132,90.233,171.657z"
   id="path30"
   style="fill:#ed5cc4;fill-opacity:1" />
<path
   fill="#428DFC"
   d="M196.902,185.059c-0.188-4.463-0.416-8.931-0.695-13.402H91.655c-0.242,4.474-0.405,8.941-0.484,13.402  H196.902z"
   id="path32"
   style="fill:#ed5cc4;fill-opacity:1" />
<path
   fill="#428DFC"
   d="M209.442,185.059h32.698v-7.185c-0.858-1.953-1.764-4.01-2.742-6.218H202.89  C204.967,176.083,207.167,180.595,209.442,185.059z"
   id="path34"
   style="fill:#ed5cc4;fill-opacity:1" />
<path
   fill="#428DFC"
   d="m 91.154,200.378 c 0.062,4.469 0.178,8.936 0.325,13.402 h 106.216 c -0.076,-4.466 -0.169,-8.934 -0.282,-13.402 z"
   id="path36"
   style="opacity:0.64379085;fill:url(#linearGradient3224);fill-opacity:1;stroke:none;stroke-opacity:1;filter:url(#filter3206)" />
<path
   fill="#428DFC"
   d="M83.437,200.378H54.012c-0.963,4.499-2.002,8.971-3.138,13.402h29.081  C81.146,209.321,82.308,204.853,83.437,200.378z"
   id="path38"
   style="fill-opacity:1;fill:url(#linearGradient3232);opacity:0.73529412" />
<polygon
   fill="#1D72D8"
   points="223.506,247.519 36.726,246.469 0,298.95 261.282,300 "
   id="polygon40"
   style="fill:#feff80;fill-opacity:1" />
<linearGradient
   id="SVGID_1_"
   gradientUnits="userSpaceOnUse"
   x1="483.2718"
   y1="1533.6498"
   x2="800.3869"
   y2="1533.6498"
   gradientTransform="matrix(0.3582 0 0 0.3582 -155.2709 -281.8914)">
	<stop
   offset="0"
   style="stop-color:#EEEEEE"
   id="stop42" />
	<stop
   offset="1"
   style="stop-color:#D6D7D8"
   id="stop44" />
</linearGradient>
<polygon
   fill="url(#SVGID_1_)"
   points="131.428,290.03 17.837,290.03 48.006,244.894 131.428,244.894 "
   id="polygon47"
   style="fill:url(#linearGradient3276);fill-opacity:1" />
<linearGradient
   id="SVGID_2_"
   gradientUnits="userSpaceOnUse"
   x1="796.7229"
   y1="1533.6498"
   x2="1113.838"
   y2="1533.6498"
   gradientTransform="matrix(0.3582 0 0 0.3582 -155.2709 -281.8914)">
	<stop
   offset="0"
   style="stop-color:#EEEEEE"
   id="stop49" />
	<stop
   offset="1"
   style="stop-color:#D6D7D8"
   id="stop51" />
</linearGradient>
<polygon
   fill="url(#SVGID_2_)"
   points="130.115,290.03 243.706,290.03 213.538,244.894 130.115,244.894 "
   id="polygon54"
   style="fill:url(#linearGradient3268);fill-opacity:1" />
<path
   fill="#FFBEB6"
   d="M176.815,31.92c-2.84-3.66-5.895-7.364-10.035-9.442c-2.644-1.328-5.609-1.92-8.562-2.105  c-10.751-0.675-21.424,4.009-29.326,11.334s-13.232,17.086-16.689,27.291c-0.869,2.565-1.635,5.221-1.552,7.927  c0.091,2.924,1.169,5.72,2.3,8.418c4.419,10.549,11.653,21.947,23.028,23.103c5.813,0.592,14.441,0.425,19.545-2.42  c9.372-5.223,14.534-10.628,21.057-19.147c5.714-7.463,10.422-20.76,8.452-29.95C183.825,41.302,180.341,36.465,176.815,31.92z"
   id="path56"
   style="fill:#86c2e7;fill-opacity:1" />
<g
   id="g60">
	<path
   fill="#E94A47"
   d="M119.556,88.027c-9.505,0-16.671-3.427-16.671-7.968c0-4.542,7.167-7.967,16.671-7.967   s16.671,3.425,16.671,7.967C136.229,84.602,129.062,88.027,119.556,88.027z M119.556,74.964c-8.55,0-13.8,2.967-13.8,5.095   s5.25,5.096,13.8,5.096s13.8-2.969,13.8-5.096C133.357,77.931,128.108,74.964,119.556,74.964z"
   id="path58"
   style="fill:#fffe4b;fill-opacity:1" />
</g>
<g
   id="g64">
	<path
   fill="#E94A47"
   d="M156.558,89.768c-9.505,0-16.671-3.427-16.671-7.968c0-4.542,7.167-7.967,16.671-7.967   c9.504,0,16.671,3.425,16.671,7.967C173.231,86.342,166.064,89.768,156.558,89.768z M156.558,76.706c-8.55,0-13.8,2.967-13.8,5.095   s5.25,5.096,13.8,5.096s13.8-2.969,13.8-5.096C170.359,79.673,165.108,76.706,156.558,76.706z"
   id="path62"
   style="fill:#fffe4b;fill-opacity:1" />
</g>
<g
   id="g68">
	<path
   fill="#E94A47"
   d="M138.358,83.672c-2.012,0-4.019-0.592-5.686-1.746l1.637-2.363c2.023,1.404,4.877,1.625,7.097,0.556   l1.245,2.59C141.308,83.354,139.832,83.672,138.358,83.672z"
   id="path66"
   style="fill:#fffe4b;fill-opacity:1" />
</g>
<linearGradient
   id="SVGID_3_"
   gradientUnits="userSpaceOnUse"
   x1="731.4965"
   y1="909.5864"
   x2="930.7326"
   y2="909.5864"
   gradientTransform="matrix(0.3582 0 0 0.3582 -155.2709 -281.8914)">
	<stop
   offset="0"
   style="stop-color:#23286B"
   id="stop70" />
	<stop
   offset="1"
   style="stop-color:#151A4F"
   id="stop72" />
</linearGradient>
<path
   fill="url(#SVGID_3_)"
   d="M143.476,23.898c-5.82,6.57-14.128,10.248-21.516,14.985c-7.388,4.738-14.49,11.583-15.209,20.331  c20.476,11.684,45.766,9.093,69.156,6.152c0.595-0.075,1.23-0.168,1.67-0.576c0.724-0.672,0.578-1.836,0.376-2.803  c-2.467-11.772-5.581-24.604-15.221-31.792c-3.235-2.413-7.117-4.097-9.62-7.262c-0.773-0.978-1.453-2.125-2.583-2.649  C147.942,19.081,145.364,21.763,143.476,23.898z"
   id="path75"
   style="opacity:0.99800004;filter:url(#filter2942);fill:#0d0654;fill-opacity:1" />
<linearGradient
   id="SVGID_4_"
   gradientUnits="userSpaceOnUse"
   x1="690.4128"
   y1="949.9506"
   x2="967.7451"
   y2="949.9506"
   gradientTransform="matrix(0.3582 0 0 0.3582 -155.2709 -281.8914)">
	<stop
   offset="0"
   style="stop-color:#23286B"
   id="stop77" />
	<stop
   offset="1"
   style="stop-color:#151A4F"
   id="stop79" />
</linearGradient>
<path
   fill="url(#SVGID_4_)"
   d="M188.544,36.191c12.921,58.878-22.324,79.864-26.799,80.418  c10.942-26.354,6.671-60.635-12.093-82.128c-1.087-1.244-2.284-2.501-3.856-3.011c-2.117-0.686-4.415,0.133-6.401,1.132  c-13.868,6.976-21.56,22.748-23.023,38.207s2.295,30.881,6.022,45.953c-9.531-9.109-17.628-19.718-23.901-31.316  c-5.657-10.46-7.761-21.753-5.66-33.458c1.248-6.946,2.393-14.36,8.614-26.327c7.324-14.089,17.658-20.363,33.056-24.228  c15.995-4.016,34.395,0.465,44.467,12.739C183.195,19.316,187.117,29.69,188.544,36.191z"
   id="path82"
   style="fill:#0d0654;fill-opacity:1" />
<path
   fill="#ffbeb6"
   d="m 198.593,79.75 c 0.448,2.406 2.811,7.281 1.913,9.574 -0.873,2.229 -7.454,3.995 -9.571,5.266 -4.785,2.872 -5.197,0.571 -13.399,7.18 29.74963,50.36062 43.08394,53.28441 61.80836,74.20903 4.76857,5.32889 9.88673,11.82526 15.71464,20.56997 27.55,41.337 -22.97,43.081 -39.24,22.019 -21.628,-27.997 -34.377,-71.541 -50.725,-102.917 -2.565,-4.925 -5.965,-13.782 -4.785,-19.147 1.205,-5.477 0.927,-7.684 6.7,-8.617 10.531,-1.7 15.134,2.427 23.474,-4.251 -0.939,-5.078 -1.48,-7.424 -2.419,-12.503 -2.528,3.295 -6.611,13.825 -10.527,11.966 -2.692,-1.278 2.54,-17.282 8.134,-19.148 8.615,-2.869 10.315,1.804 12.922,15.799 z"
   id="path84"
   sodipodi:nodetypes="ccccscccccccccc"
   style="fill:#86c2ea;fill-opacity:1" />
<path
   fill="#E94A47"
   d="m 239.435,241.415 c 6.306,2.451 14.306,3.54 19.401,-0.692 2.392,-1.988 3.708,-4.857 4.35,-7.795 h -36.601 c 3.966,3.686 8.306,6.721 12.85,8.487 z"
   id="path86"
   style="mix-blend-mode:multiply;fill:url(#linearGradient3256);fill-opacity:1;filter:url(#filter3258);opacity:0.68300654" />
<path
   fill="#E94A47"
   d="M247.883,186.018c0.513,1.215,1.042,2.944,1.456,4.786h2.281  C250.449,189.206,249.217,187.61,247.883,186.018z"
   id="path88"
   style="fill:#f98391;fill-opacity:1" />
<path
   fill="#E94A47"
   d="M247.536,204.207c-2.936,4.533-7.919,8.006-13.348,9.838c-7.456,2.516-15.496,0.214-24.11-3.616  c1.435,2.906,3.211,6.005,5.268,9.094h48.378c-0.555-5.102-1.97-10.212-4.231-15.318h-11.959v0.002H247.536z"
   id="path90"
   style="fill:#e94aff;fill-opacity:1" />
<path
   fill="#428DFC"
   d="M251.62,190.804h-2.281c0.636,2.839,0.993,5.955,0.551,7.924c-0.44,1.957-1.259,3.788-2.353,5.478h11.959  C257.514,199.731,254.885,195.261,251.62,190.804z"
   id="path92"
   style="fill:#d68dfc;fill-opacity:1" />
<path
   fill="#428DFC"
   d="M226.584,232.928h36.601c0.068-0.311,0.135-0.624,0.188-0.935c0.704-4.144,0.805-8.303,0.353-12.468h-48.38  C218.504,224.266,222.327,228.972,226.584,232.928z"
   id="path94"
   style="fill:#c24eaf;fill-opacity:1" />
<path
   fill="#FFBEB6"
   d="M68.746,229.246c-1.933-7.25-0.508-6.622-7.972-11.396c-1.246-0.797-12.663-10.374-13.639-11.489  c-0.499-0.571-1.173-1.008-1.952-1.349c-7.524-6.043-17.701-7.719-26.045-2.833c-0.735,0.43-4.513,2.983-5.154,3.544  c-2.577,2.256-4.759,5.529-4.509,8.378c0.376,4.304,0.753,8.606,1.129,12.91c0.261,2.99,0.523,5.983,1,8.945  c0.979,6.066,2.856,11.945,4.726,17.798c0.227,0.711,0.83,1.597,1.494,1.258c0.224-0.115,0.361-0.347,0.465-0.576  c0.62-1.37,0.475-2.949,0.316-4.445c-0.823-7.784-1.645-15.568-2.469-23.352c-0.169-1.599,0.345-2.775,1.389-3.997  c2.446,6.458,2.204,13.63,4.087,20.274c1.895,6.689,3.661,11.285,6.223,17.75c2.49,6.282,8.215,6.928,11.075,5.867  c0.685-0.254,0.708-1.26,0.794-1.988c0.069-0.58,0.111-1.161,0.137-1.739c1.217,3.825,3.147,7.492,5.62,7.46  c3.118-0.04,1.477-9.076,1.515-12.194c0.127-10.322-0.261-14.312-0.135-24.635c0.04-3.274,0.966-9.989,0.321-13.211  c4.527,4.164,10.469,6.445,11.275,8.056c1.146,2.292,3.647,8.13,5.443,9.956c1.796,1.826,4.48,3.042,6.935,2.317  C72.346,238.368,69.433,231.823,68.746,229.246z M35.603,240.032c-0.86-4.779-0.993-9.656-1.125-14.51  c-0.049-1.798-0.082-3.642,0.209-5.403c1.213,1.314,2.207,2.678,2.705,4.099c-0.069,8.232,0.991,11.276,0.411,17.805  c-0.195,2.198-0.094,4.865,0.086,7.502C37.069,246.368,36.176,243.212,35.603,240.032z"
   id="path96"
   style="fill:#86c2ea;fill-opacity:1" />
</svg>
