<svg xmlns="http://www.w3.org/2000/svg"  viewBox="0 0 64 64" width="128px" height="128px"><linearGradient id="kkfVQXMAr1uvalmC2UB51a" x1="32" x2="32" y1="7.333" y2="56.029" gradientUnits="userSpaceOnUse" spreadMethod="reflect"><stop offset="0" stop-color="#1a6dff"/><stop offset="1" stop-color="#c822ff"/></linearGradient><path fill="url(#kkfVQXMAr1uvalmC2UB51a)" d="M56,45h-3V15c0-1.103-0.897-2-2-2h-8v-2c0-1.103-0.897-2-2-2h-8c-1.103,0-2,0.897-2,2v7h-8v-2 c0-1.103-0.897-2-2-2h-8c-1.103,0-2,0.897-2,2v29H8c-1.103,0-2,0.897-2,2v2c0,1.103,0.897,2,2,2h6v2c0,1.103,0.897,2,2,2h6 c1.103,0,2-0.897,2-2v-2h16v2c0,1.103,0.897,2,2,2h6c1.103,0,2-0.897,2-2v-2h6c1.103,0,2-0.897,2-2v-2C58,45.897,57.103,45,56,45z M33,15h8v26h-8V20V15z M51,41h-8V19h8V41z M31,41h-8V24h8V41z M21,41h-8V20h8V41z M23,43h8v2h-8V43z M33,43h8v2h-8V43z M43,43h8v2 h-8V43z M51,15v2h-8v-2H51z M41,11v2h-8v-2H41z M31,20v2h-8v-2H31z M21,16v2h-8v-2H21z M13,43h8v2h-8V43z M22,53h-6v-2h6V53z M48,53 h-6v-2h6V53z M56,49h-8h-6H22h-6H8v-2h5h8h2h8h2h8h2h8h5V49z"/><linearGradient id="kkfVQXMAr1uvalmC2UB51b" x1="17" x2="17" y1="7.333" y2="56.029" gradientUnits="userSpaceOnUse" spreadMethod="reflect"><stop offset="0" stop-color="#1a6dff"/><stop offset="1" stop-color="#c822ff"/></linearGradient><path fill="url(#kkfVQXMAr1uvalmC2UB51b)" d="M16 22H18V39H16z"/><linearGradient id="kkfVQXMAr1uvalmC2UB51c" x1="27" x2="27" y1="7.333" y2="56.029" gradientUnits="userSpaceOnUse" spreadMethod="reflect"><stop offset="0" stop-color="#1a6dff"/><stop offset="1" stop-color="#c822ff"/></linearGradient><path fill="url(#kkfVQXMAr1uvalmC2UB51c)" d="M26 26H28V39H26z"/><linearGradient id="kkfVQXMAr1uvalmC2UB51d" x1="37" x2="37" y1="7.333" y2="56.029" gradientUnits="userSpaceOnUse" spreadMethod="reflect"><stop offset="0" stop-color="#1a6dff"/><stop offset="1" stop-color="#c822ff"/></linearGradient><path fill="url(#kkfVQXMAr1uvalmC2UB51d)" d="M36 17H38V39H36z"/><linearGradient id="kkfVQXMAr1uvalmC2UB51e" x1="47" x2="47" y1="7.333" y2="56.029" gradientUnits="userSpaceOnUse" spreadMethod="reflect"><stop offset="0" stop-color="#1a6dff"/><stop offset="1" stop-color="#c822ff"/></linearGradient><path fill="url(#kkfVQXMAr1uvalmC2UB51e)" d="M46 21H48V39H46z"/><linearGradient id="kkfVQXMAr1uvalmC2UB51f" x1="19" x2="19" y1="50.583" y2="53.583" gradientUnits="userSpaceOnUse" spreadMethod="reflect"><stop offset="0" stop-color="#6dc7ff"/><stop offset="1" stop-color="#e6abff"/></linearGradient><path fill="url(#kkfVQXMAr1uvalmC2UB51f)" d="M16 51H22V53H16z"/><linearGradient id="kkfVQXMAr1uvalmC2UB51g" x1="45" x2="45" y1="50.583" y2="53.583" gradientUnits="userSpaceOnUse" spreadMethod="reflect"><stop offset="0" stop-color="#6dc7ff"/><stop offset="1" stop-color="#e6abff"/></linearGradient><path fill="url(#kkfVQXMAr1uvalmC2UB51g)" d="M42 51H48V53H42z"/></svg>